<?xml version="1.0" encoding="utf-8"?>
<!-- Generator: Adobe Illustrator 24.0.2, SVG Export Plug-In . SVG Version: 6.00 Build 0)  -->
<svg version="1.1" id="Layer_1" xmlns="http://www.w3.org/2000/svg" xmlns:xlink="http://www.w3.org/1999/xlink" x="0px" y="0px"
	 viewBox="0 0 45 45" style="enable-background:new 0 0 45 45;" xml:space="preserve">
<style type="text/css">
	.st0{fill:#FFFFFF;}
</style>
<g>
	<rect x="14.2" y="13.6" class="st0" width="16.4" height="1.3"/>
	<polygon class="st0" points="11.6,16.4 11.6,22.4 21.1,16.4 	"/>
	<polygon class="st0" points="33.6,22.1 33.6,16.4 24.1,16.4 	"/>
	<rect x="21.3" y="4.1" class="st0" width="2.3" height="5.5"/>
	<rect x="17.3" y="11" class="st0" width="10.5" height="1.1"/>
	<path class="st0" d="M0,0v45h45V0H0z M43.4,40.8L39.1,40c-3.9-0.8-7.9-0.7-11.9,0.1l-8.8,1.8c-1.8,0.4-3.5,0.5-5.3,0.5
		c-1.5,0-2.9-0.1-4.4-0.4l-7.2-1.2c-0.4-0.1-0.7-0.5-0.6-0.9s0.5-0.7,0.9-0.6L9,40.5c0.5,0.1,0.9,0.1,1.4,0.2L5.9,26.5
		c-0.1-0.3,0-0.7,0.3-0.9l3.8-2.4v-7.7c0-0.4,0.3-0.8,0.8-0.8h1.9v-2c0-0.4,0.3-0.8,0.8-0.8h2.3v-1.8c0-0.4,0.3-0.8,0.8-0.8h3.2v-6
		c0-0.4,0.3-0.8,0.8-0.8h3.8c0.4,0,0.8,0.3,0.8,0.8v6.2h3.4c0.4,0,0.8,0.3,0.8,0.8v1.8h2.1c0.4,0,0.8,0.3,0.8,0.8v2h2.2
		c0.4,0,0.8,0.3,0.8,0.8v7.4l3.6,2.2c0.3,0.2,0.4,0.5,0.3,0.8L35.8,38c1.2,0.1,2.4,0.2,3.7,0.5l4.3,0.8c0.4,0.1,0.7,0.5,0.6,0.9
		C44.2,40.7,43.8,40.9,43.4,40.8z"/>
	<path class="st0" d="M7.5,26.7L12,40.9c2.1,0.1,4.1,0,6.2-0.5l3.6-0.7l0,0l0.1-21.9L7.5,26.7z"/>
	<path class="st0" d="M23.3,17.7l-0.1,21.7l3.7-0.7c2.4-0.5,4.8-0.7,7.2-0.6l3.3-11.7L23.3,17.7z"/>
</g>
</svg>
