<?xml version="1.0" encoding="utf-8"?>
<!-- Generator: Adobe Illustrator 23.0.3, SVG Export Plug-In . SVG Version: 6.00 Build 0)  -->
<svg version="1.1" id="Layer_1" xmlns="http://www.w3.org/2000/svg" xmlns:xlink="http://www.w3.org/1999/xlink" x="0px" y="0px"
	 viewBox="0 0 45 45" width="45" height="45" style="enable-background:new 0 0 45 45;" xml:space="preserve">
<style type="text/css">
	.st0{fill:#FFFFFF;}
</style>
<title>snowflake</title>
<desc>Created with Sketch.</desc>
<g>
	<circle class="st0" cx="22.3" cy="23.1" r="4"/>
	<path class="st0" d="M0,0.1v44.7h45V0.1H0z M40.2,18.4l-0.5,1.9l-7.3-1.9L27.9,21c0.2,0.7,0.4,1.4,0.4,2.1s-0.1,1.4-0.3,2l4.4,2.6
		l7.2-1.9l0.5,1.9l-5.3,1.4l4.5,2.7l-1,1.7l-4.7-2.8l1.5,5.6l-1.9,0.5l-2-7.5L27,27c-0.9,1.1-2.2,1.9-3.7,2.2v5l5.2,5.4L27.1,41
		l-3.8-4v6.4h-2v-6.5l-3.8,3.9l-1.4-1.4l5.2-5.4v-5c-1.5-0.3-2.7-1-3.6-2.2l-4.4,2.7l-2,7.3l-1.9-0.5l1.5-5.4l-5.6,3.3l-1-1.7
		l5.6-3.3l-5.5-1.4l0.5-1.9l7.4,2l4.3-2.5c-0.2-0.6-0.3-1.3-0.3-2s0.1-1.4,0.4-2.1l-4.4-2.7l-7.5,2l-0.5-1.9l5.6-1.5l-6.2-3.6l1-1.7
		l6.1,3.5L9.3,10l2-0.5l2,7.3l4.5,2.6c0.9-1.1,2.2-1.8,3.6-2.1v-5l-5.3-5.5l1.4-1.4l3.8,4V2.2h2v7L27,5.4l1.4,1.4L23.3,12v5.2
		c1.4,0.2,2.7,1,3.6,2.1l4.3-2.5l2-7.4l1.9,0.5l-1.5,5.5l6.2-3.6l1,1.7L34.7,17L40.2,18.4z"/>
</g>
</svg>
