<svg enable-background="new 0 0 44.7 43.6" viewBox="0 0 44.7 43.6" height="29" width="29" xmlns="http://www.w3.org/2000/svg"><path d="m34.7 47.5c-.1 0-.3 0-.4 0-.9 0-1.8-.1-2.7-.2-5.8-1-11.8-4.4-17.4-9.9-4.6-4.4-8-10-9.8-16.1-1-3.7 0-7.6 2.7-10.3l1.1-1c.8-1 2-1.5 3.3-1.5 1.2 0 2.4.5 3.3 1.3l5.4 5.3c1.1 1 1.5 2.5 1.3 4-.2 1.4-1.2 2.7-2.5 3.4l-2.9 1.6c1.4 2.1 3 4.1 4.8 6 2.3 2.2 4.9 4 7.8 5.3l1.3-2.3c.7-1.3 1.9-2.2 3.4-2.4s3 .3 4 1.3l5.4 5.3c.8.9 1.3 2 1.3 3.2s-.5 2.4-1.4 3.3l-1.2 1.2c-1.9 1.6-4.3 2.5-6.8 2.5zm-23.2-37c-.7 0-1.4.3-1.9.8l-1 1c-2.2 2.2-3 5.4-2.2 8.4 1.7 5.8 4.9 11 9.3 15.2 5.3 5.2 10.9 8.5 16.3 9.4.8.1 1.6.2 2.4.2 2.1.1 4.2-.7 5.7-2.1l1.2-1.2c.5-.5.8-1.2.8-1.9 0-.6-.2-1.3-.7-1.7l-5.4-5.2c-.6-.6-1.5-.9-2.3-.7-.8.1-1.6.6-1.9 1.4l-2.1 3.9-.8-.3c-3.5-1.4-6.6-3.5-9.2-6.1-2.2-2.2-4.1-4.6-5.7-7.2l-.5-.9 4.7-2.7c.8-.4 1.3-1.1 1.4-1.9s-.1-1.6-.7-2.2l-5.4-5.3c-.6-.6-1.3-.9-2-.9z" transform="translate(-4 -4)"/><path d="m36.4 25.2h-2c0-7.8-6.3-14.2-14.2-14.2v-2c8.9.1 16.2 7.3 16.2 16.2z"/><path d="m44.8 24.8h-2c0-12.6-10.2-22.8-22.8-22.8v-2c13.7 0 24.8 11.1 24.8 24.8z"/></svg>
