<svg id="Layer_1" data-name="Layer 1" width="100%" height="100%" xmlns="http://www.w3.org/2000/svg" xmlns:xlink="http://www.w3.org/1999/xlink" viewBox="0 0 115.68 31.43"><defs><style>.cls-1{fill:none;}.cls-2{clip-path:url(#clip-path);}.cls-3{fill:#005596;}</style><clipPath id="clip-path" transform="translate(-11.84 -8.52)"><rect class="cls-1" x="11.01" y="25.34" width="116.51" height="14.62"/></clipPath></defs><g class="cls-2"><path class="cls-3" d="M120.3,33.33c.06-1.16.63-1.93,1.82-1.93a1.66,1.66,0,0,1,1.75,1.93Zm7.22,1.72c0-.51.32-5.52-5.62-5.52-3.34,0-6,2.13-6,5.19,0,2.62,2,5.23,6.31,5.23a10.82,10.82,0,0,0,4.66-1.07L126,37a8,8,0,0,1-2.94.74,2.56,2.56,0,0,1-2.86-2.73Zm-19.91-5.31v10h4v-3a6.64,6.64,0,0,1,.27-2.49,2.4,2.4,0,0,1,2.41-1.58,5.77,5.77,0,0,1,1.18.14l.44-3.08a5.66,5.66,0,0,0-1.21-.13c-2.11,0-3,1.83-3.39,2.74l-.28-2.61Zm-9.43,4.9c0-1.84.32-3.18,1.9-3.18,1.24,0,1.89.67,1.89,3.06S101.5,38,100.08,38s-1.9-1-1.9-3.37v0Zm-4.3.23c0,2.61,2,5.08,6.08,5.08s6.31-2.17,6.31-5.29c0-2.79-1.85-5.13-6.12-5.13s-6.27,2.62-6.27,5.32v0Zm-18-8.5V39.75h2.88V29.37l3.8,10.38h2l3.77-10.38V39.75h4.14V26.37H87.05l-2.9,8-2.9-8Zm-1.54,7.5a2.41,2.41,0,1,0-2.42,2.4,2.42,2.42,0,0,0,2.42-2.4ZM60.72,29.74v10h4.06v-3A6.93,6.93,0,0,1,65,34.26a2.41,2.41,0,0,1,2.41-1.58,5.77,5.77,0,0,1,1.18.14l.44-3.08a5.66,5.66,0,0,0-1.21-.13c-2.11,0-3,1.83-3.39,2.74l-.28-2.61Zm-8.41,3.59c.06-1.16.63-1.93,1.83-1.93a1.66,1.66,0,0,1,1.74,1.93Zm7.22,1.72c0-.51.33-5.52-5.62-5.52-3.34,0-6,2.13-6,5.19,0,2.62,2,5.23,6.31,5.23a10.75,10.75,0,0,0,4.66-1.07L58,37a7.94,7.94,0,0,1-2.94.74,2.56,2.56,0,0,1-2.86-2.73Zm-23-5.31a12.21,12.21,0,0,1,1.79,3.71,17.13,17.13,0,0,1,.77,4.94c0,.57,0,1-.06,1.36h2.39c1.91-1.58,5.52-5.41,6.45-10H45.46a15,15,0,0,1-3,6.26c0-.16,0-.71,0-1.07a10,10,0,0,0-1.43-5.19Zm-8,4.9c0-1.84.33-3.18,1.91-3.18,1.23,0,1.88.67,1.88,3.06S31.9,38,30.48,38s-1.91-1-1.91-3.37v0Zm-4.3.23c0,2.61,2,5.08,6.09,5.08,4,0,6.3-2.17,6.3-5.29,0-2.79-1.84-5.13-6.12-5.13s-6.27,2.62-6.27,5.32v0Zm-.17-8a12.9,12.9,0,0,0-4.23-.65c-5.13,0-8,3-8,6.91,0,3.59,2.53,6.85,7.66,6.85a12.23,12.23,0,0,0,4.69-.85l-.88-2.25a7.59,7.59,0,0,1-2.94.73c-2,0-3.95-1.17-3.95-4.6,0-2.9,1.66-4.42,4.14-4.42a8.57,8.57,0,0,1,2.71.53l.83-2.25Z" transform="translate(-11.84 -8.52)"/></g><path class="cls-3" d="M48.09,10.39c0,1.18-.64,2-2.28,2h-.67V14.7H44.06V8.61H46C47.25,8.61,48.09,9.09,48.09,10.39Zm-3-.85v2h.63c.93,0,1.19-.41,1.19-1s-.36-1-1.14-1Z" transform="translate(-11.84 -8.52)"/><path class="cls-3" d="M50.94,8.61c1.32,0,2.09.5,2.09,1.76a1.54,1.54,0,0,1-1.32,1.68v0a1.82,1.82,0,0,1,.78.85l1,1.76h-1.3l-1-2a.72.72,0,0,0-.7-.39h-.24V14.7H49.13V8.61Zm-.73,2.84h.61c.76,0,1.1-.31,1.1-1s-.4-1-1.11-1h-.6Z" transform="translate(-11.84 -8.52)"/><path class="cls-3" d="M56.52,14.79c-1.5,0-2.42-.83-2.42-3.09s1-3.18,2.5-3.18S59,9.36,59,11.63,58,14.79,56.52,14.79Zm.07-.92c.81,0,1.31-.53,1.31-2.18s-.53-2.25-1.37-2.25-1.31.52-1.31,2.18S55.75,13.87,56.59,13.87Z" transform="translate(-11.84 -8.52)"/><path class="cls-3" d="M59.35,8.61h1.2l1.12,3.71c.11.4.32,1.09.41,1.5h0c.08-.39.27-1.09.39-1.51l1.12-3.7h1.14l-2,6.09H61.31Z" transform="translate(-11.84 -8.52)"/><path class="cls-3" d="M65.66,8.61h1.09V14.7H65.66Z" transform="translate(-11.84 -8.52)"/><path class="cls-3" d="M68.32,8.61H70.1c1.93,0,2.8,1,2.8,2.94,0,1.72-.69,3.15-2.79,3.15H68.32Zm1.08,5.18H70c1.28,0,1.74-.75,1.74-2.14,0-1.6-.67-2.13-1.76-2.13H69.4Z" transform="translate(-11.84 -8.52)"/><path class="cls-3" d="M74.09,14.7V8.61h3.47v.91H75.17v1.64h2.07v.91H75.17v1.72h2.5v.91Z" transform="translate(-11.84 -8.52)"/><path class="cls-3" d="M78.87,8.61h1.78c1.93,0,2.8,1,2.8,2.94,0,1.72-.69,3.15-2.79,3.15H78.87ZM80,13.79h.64c1.28,0,1.74-.75,1.74-2.14,0-1.6-.67-2.13-1.76-2.13H80Z" transform="translate(-11.84 -8.52)"/><path class="cls-3" d="M91.07,12.89c0,.87-.48,1.81-2.29,1.81h-2V8.61h2.07c1,0,1.87.37,1.87,1.57a1.3,1.3,0,0,1-.86,1.32v0A1.27,1.27,0,0,1,91.07,12.89ZM88.74,9.52H87.9v1.64h.82c.69,0,1-.33,1-.84S89.4,9.52,88.74,9.52ZM90,12.93c0-.65-.5-.86-1.09-.86h-1v1.72h1C89.68,13.79,90,13.43,90,12.93Z" transform="translate(-11.84 -8.52)"/><path class="cls-3" d="M96.37,8.61l-2,4v2H93.24v-2l-2-4h1.22l1.37,3h0l1.38-3Z" transform="translate(-11.84 -8.52)"/></svg>