<?xml version="1.0" encoding="utf-8"?>
<!-- Generator: Adobe Illustrator 23.0.3, SVG Export Plug-In . SVG Version: 6.00 Build 0)  -->
<svg version="1.1" id="Layer_1" xmlns="http://www.w3.org/2000/svg" xmlns:xlink="http://www.w3.org/1999/xlink" x="0px" y="0px"
	 viewBox="0 0 45 45" width="45" height="45" style="enable-background:new 0 0 45 45;" xml:space="preserve">
<style type="text/css">
	.st0{fill:#FFFFFF;}
</style>
<g>
	<polygon class="st0" points="33.9,11.4 31.9,11.4 31.9,8.5 13.9,8.5 13.9,11.4 11.9,11.4 11.9,8.5 6.1,8.5 6.1,14 39.1,14
		39.1,8.5 33.9,8.5 	"/>
	<path class="st0" d="M6.1,39.5h33V16h-33V39.5z M16.7,22.5l1.4-1.4l4.5,4.5l4.5-4.5l1.4,1.4l-4.4,4.6l4.6,4.6l-1.4,1.4l-4.7-4.6
		L18,33.2l-1.4-1.4l4.6-4.6L16.7,22.5z"/>
	<path class="st0" d="M0,0v45h45V0H0z M41.1,14v2v25.5h-37v-35h7.8v-3h2v3h18v-3h2v3h7.2V14z"/>
</g>
</svg>
