<?xml version="1.0" encoding="utf-8"?>
<!-- Generator: Adobe Illustrator 24.0.2, SVG Export Plug-In . SVG Version: 6.00 Build 0)  -->
<svg version="1.1" id="Layer_1" xmlns="http://www.w3.org/2000/svg" xmlns:xlink="http://www.w3.org/1999/xlink" x="0px" y="0px"
	 viewBox="0 0 45 45" style="enable-background:new 0 0 45 45;" xml:space="preserve">
<style type="text/css">
	.st0{fill:#FFFFFF;}
</style>
<g>
	<path class="st0" d="M29.3,15.1c-0.1-5.6-4.2-10.1-6.2-12v23.7C27.3,23.1,29.4,19.2,29.3,15.1z"/>
	<path class="st0" d="M20.6,27.5C20.7,27.5,20.7,27.5,20.6,27.5L20.6,27.5c-4.2-3.9-6.3-8.1-6.2-12.4c0.1-5.9,4.1-10.5,6.3-12.6
		C14.6,3.4,9.9,8.6,9.9,15C9.9,21.3,14.6,26.6,20.6,27.5z"/>
	<path class="st0" d="M23.7,28.8c-0.4,0-0.8,0.1-1.2,0.1c0,0,0,0-0.1,0l0,0l0,0c-0.4,0-0.7,0-1.1-0.1v1.1h2.4
		C23.7,29.9,23.7,28.8,23.7,28.8z"/>
	<path class="st0" d="M18.4,28.2c-1.1-0.4-2.2-0.9-3.2-1.5l3.4,6L18.4,28.2z"/>
	<path class="st0" d="M21.8,26.9V3.1c-2,1.8-6.1,6.3-6.2,12C15.5,19.2,17.6,23.1,21.8,26.9z"/>
	<path class="st0" d="M26.5,32.7l3.4-6c-1,0.6-2.1,1.1-3.2,1.5L26.5,32.7z"/>
	<path class="st0" d="M0,0v45h45V0H0z M32.2,24.8v0.1l-5.4,9.7l0,0c0.5,0,0.9,0.4,0.9,0.9V43c0,0.5-0.4,0.9-0.9,0.9h-8.7
		c-0.5,0-0.9-0.4-0.9-0.9v-7.5c0-0.5,0.4-0.9,0.9-0.9l0,0l-5.4-9.7v-0.1c-2.5-2.5-4.1-6-4.1-9.8c0-7.6,6.2-13.8,13.8-13.8
		S36.3,7.4,36.3,15C36.3,18.8,34.8,22.3,32.2,24.8z"/>
	<path class="st0" d="M24.2,2.5c2.2,2.1,6.3,6.7,6.4,12.6c0.1,4.4-2.1,8.5-6.3,12.4h0.1c0,0,0,0,0.1,0c6.1-0.9,10.8-6.2,10.8-12.5
		C35.1,8.6,30.4,3.3,24.2,2.5z"/>
	<rect x="18.5" y="35.8" class="st0" width="8" height="6.8"/>
	<path class="st0" d="M24.9,28.6v1.8c0,0.3-0.3,0.6-0.6,0.6h-3.6c-0.3,0-0.6-0.3-0.6-0.6v-1.8c-0.2,0-0.3-0.1-0.5-0.1l0.2,6.1h5.4
		l0.2-6.1C25.3,28.5,25.1,28.6,24.9,28.6z"/>
</g>
</svg>
