<?xml version="1.0" encoding="utf-8"?>
<!-- Generator: Adobe Illustrator 24.0.2, SVG Export Plug-In . SVG Version: 6.00 Build 0)  -->
<svg version="1.1" id="Layer_1" xmlns="http://www.w3.org/2000/svg" xmlns:xlink="http://www.w3.org/1999/xlink" x="0px" y="0px"
	 viewBox="0 0 45 45" style="enable-background:new 0 0 45 45;" xml:space="preserve">
<style type="text/css">
	.st0{fill:#FFFFFF;}
</style>
<g>
	<circle class="st0" cx="33.3" cy="7.2" r="1.5"/>
	<path class="st0" d="M0,0v45h45V0H0z M33.3,4.4c1.5,0,2.8,1.3,2.8,2.8S34.8,10,33.3,10s-2.8-1.3-2.8-2.8S31.8,4.4,33.3,4.4z
		 M3.9,20.8L3.9,20.8c0.3-0.4,0.8-0.6,1.2-0.3l9.5,5.7c0.4,0.3,0.6,0.8,0.3,1.2c-0.2,0.3-0.4,0.4-0.8,0.4c-0.2,0-0.3,0-0.5-0.1
		L4.2,22C3.8,21.7,3.7,21.2,3.9,20.8z M23.3,40.1L23.3,40.1c-0.2,0.3-0.4,0.4-0.8,0.4c-0.2,0-0.3,0-0.5-0.1L7.4,31.5
		c-0.4-0.3-0.6-0.8-0.3-1.2c0.3-0.4,0.8-0.5,1.2-0.3L23,38.9c0.2,0.1,0.3,0.3,0.4,0.5C23.4,39.7,23.4,39.9,23.3,40.1z M16,30.9
		L16,30.9c0.1-0.2,0.3-0.3,0.6-0.4c0.2-0.1,0.5,0,0.7,0.1l5.1,3.2c0.2,0.1,0.3,0.3,0.4,0.6c0.1,0.2,0,0.5-0.1,0.7
		c-0.2,0.3-0.4,0.4-0.8,0.4c-0.2,0-0.3,0-0.5-0.1l-5.1-3.2C15.9,31.9,15.8,31.3,16,30.9z M31.6,17.6l-2.7-2.7
		c-0.2-0.2-0.3-0.4-0.3-0.6v-5c-0.2-0.5-0.6-1.2-1-1.2c-0.1,0-2.8,0-6.3,2.2l4.1,2.4v-1.6c0-0.5,0.4-0.9,0.9-0.9s0.9,0.4,0.9,0.9v4
		l4.2,3.2c0.4,0.3,0.5,0.8,0.2,1.2c-0.1,0.2-0.3,0.3-0.6,0.3c-0.2,0-0.5,0-0.7-0.2l-4.6-3.4c-0.2-0.2-0.4-0.4-0.4-0.7v-0.8l-5.7-3.3
		c-0.6,0.4-1.1,0.9-1.6,1.4c-0.1,0.2-0.5,1-0.1,1.4l4.5,5.1c0.3,0.3,0.3,0.9,0,1.2l-3.7,3.7l0.8,0.5l5-4.4l-2-4.5
		c-0.1-0.2-0.1-0.5,0-0.7s0.3-0.4,0.5-0.5c0.4-0.2,1,0,1.2,0.4l2.3,5.1c0.2,0.4,0.1,0.8-0.2,1l-5.1,4.5l10,6.1
		c0.2,0.1,0.3,0.3,0.4,0.5s0,0.5-0.1,0.7c-0.2,0.3-0.4,0.4-0.8,0.4c-0.2,0-0.3,0-0.5-0.1l-28-17.1C2,16,1.9,15.8,1.8,15.6
		s0-0.5,0.1-0.7c0.3-0.4,0.8-0.5,1.2-0.3l14,8.6l3.4-3.4l-3.9-4.5c-1.1-1.1-0.6-2.8-0.1-3.6c0-0.1,0.1-0.1,0.1-0.2
		c0.4-0.4,0.9-0.8,1.3-1.2l-7.5-4.4C10,5.7,9.8,5.1,10.1,4.7c0.2-0.4,0.8-0.6,1.2-0.3l8.1,4.7c4.1-2.9,7.6-3,8-3
		c1.9,0,2.7,2.3,2.7,2.5c0,0.1,0,0.2,0,0.3v4.7l2.5,2.5c0.3,0.3,0.3,0.9,0,1.3C32.5,17.9,31.9,17.9,31.6,17.6z M43,40.1
		c-0.2,0.3-0.4,0.4-0.8,0.4c-0.2,0-0.3,0-0.5-0.1l-8.3-5.1c-0.2-0.1-0.3-0.3-0.4-0.5c-0.1-0.2,0-0.5,0.1-0.7s0.3-0.3,0.5-0.4
		c0.2-0.1,0.5,0,0.7,0.1l8.3,5.1C43.1,39.2,43.2,39.7,43,40.1z"/>
</g>
</svg>
