<?xml version="1.0" encoding="utf-8"?>
<!-- Generator: Adobe Illustrator 25.4.1, SVG Export Plug-In . SVG Version: 6.00 Build 0)  -->
<svg version="1.1" id="Layer_1" xmlns="http://www.w3.org/2000/svg" xmlns:xlink="http://www.w3.org/1999/xlink" x="0px" y="0px"
	viewBox="0 0 208.49 56.12" style="enable-background:new 0 0 208.49 56.12;" xml:space="preserve">
<style type="text/css">
	.st0{fill:#005291;}
</style>
<path class="st0" d="M31.37,18.12c-2.59-0.87-4.91-1.03-6.76-1.03c-8.18,0-12.8,4.82-12.8,11.02c0,5.72,4.04,10.93,12.22,10.93
	c3.94,0,6.34-0.94,7.47-1.36l-1.39-3.59c-0.94,0.39-2.72,1.16-4.69,1.16c-3.14,0-6.3-1.88-6.3-7.34c0-4.62,2.65-7.05,6.6-7.05
	c1.84,0,3.59,0.58,4.33,0.84L31.37,18.12L31.37,18.12z M31.64,30.92c0,4.17,3.14,8.12,9.7,8.12c6.3,0,10.05-3.46,10.05-8.44
	c0-4.46-2.94-8.18-9.76-8.18c-6.95,0-9.99,4.17-9.99,8.47V30.92L31.64,30.92z M38.49,30.56c0-2.94,0.52-5.07,3.04-5.07
	c1.97,0,3.01,1.07,3.01,4.88c0,3.94-0.74,5.59-3.01,5.59c-2.29,0-3.04-1.58-3.04-5.37V30.56L38.49,30.56z M51.26,22.74
	c1.07,1.39,2.1,3.49,2.85,5.92c0.74,2.42,1.23,5.21,1.23,7.89c0,0.91-0.06,1.65-0.1,2.17h3.81c3.04-2.52,8.79-8.63,10.28-15.97
	h-3.91c-0.26,1.33-1.29,5.56-4.82,9.99c0-0.26,0.07-1.13,0.07-1.71c0-2.91-0.78-5.79-2.3-8.27H51.26L51.26,22.74z M87.85,31.21
	c0-0.81,0.52-8.79-8.95-8.79c-5.33,0-9.54,3.4-9.54,8.28c0,4.17,3.2,8.34,10.05,8.34c3.2,0,5.59-0.87,7.44-1.71l-1.39-2.94
	c-1.68,0.71-3.27,1.2-4.69,1.2c-3.33,0-4.65-2.2-4.56-4.37H87.85L87.85,31.21z M76.34,28.46c0.1-1.84,1-3.07,2.91-3.07
	c2.75,0,2.78,2.29,2.78,3.07H76.34L76.34,28.46z M89.75,22.74v15.97h6.46v-4.79c0-2.2,0.1-3.1,0.42-3.97
	c0.74-2.07,2.59-2.52,3.85-2.52c0.74,0,1.42,0.13,1.88,0.23l0.71-4.91c-0.97-0.19-1.71-0.19-1.94-0.19c-3.36,0-4.79,2.91-5.4,4.36
	l-0.45-4.17H89.75L89.75,22.74z M111.45,29.32c0-2.15-1.76-3.86-3.86-3.86c-2.13,0-3.83,1.73-3.83,3.86c0,2.1,1.7,3.83,3.83,3.83
	c2.07,0,3.86-1.7,3.86-3.8V29.32L111.45,29.32z M113.91,17.37v21.33h4.59V22.16l6.04,16.55h3.13l6.01-16.55v16.55h6.6V17.37h-8.57
	l-4.62,12.7l-4.62-12.7H113.91L113.91,17.37z M142.62,30.92c0,4.17,3.13,8.12,9.7,8.12c6.3,0,10.05-3.46,10.05-8.44
	c0-4.46-2.94-8.18-9.76-8.18c-6.95,0-9.99,4.17-9.99,8.47V30.92L142.62,30.92z M149.47,30.56c0-2.94,0.52-5.07,3.04-5.07
	c1.97,0,3.01,1.07,3.01,4.88c0,3.94-0.74,5.59-3.01,5.59c-2.29,0-3.04-1.58-3.04-5.37V30.56L149.47,30.56z M164.51,22.74v15.97h6.46
	v-4.79c0-2.2,0.1-3.1,0.42-3.97c0.74-2.07,2.59-2.52,3.85-2.52c0.74,0,1.42,0.13,1.88,0.23l0.71-4.91
	c-0.97-0.19-1.71-0.19-1.94-0.19c-3.36,0-4.78,2.91-5.4,4.36l-0.45-4.17H164.51L164.51,22.74z M196.25,31.21
	c0-0.81,0.52-8.79-8.96-8.79c-5.33,0-9.54,3.4-9.54,8.28c0,4.17,3.2,8.34,10.05,8.34c3.2,0,5.59-0.87,7.44-1.71l-1.39-2.94
	c-1.68,0.71-3.27,1.2-4.69,1.2c-3.33,0-4.65-2.2-4.56-4.37H196.25L196.25,31.21z M184.74,28.46c0.1-1.84,1-3.07,2.91-3.07
	c2.75,0,2.78,2.29,2.78,3.07H184.74L184.74,28.46z"/>
</svg>
