<svg id="Layer_1" data-name="Layer 1" xmlns="http://www.w3.org/2000/svg" viewBox="0 0 45 45"><defs><style>.cls-1{fill:#fff;}</style></defs><title>Motorcycle_Icons</title><polygon class="cls-1" points="32 14.07 29.61 15.32 33.04 21.84 35.95 19.65 32 14.07"/><polygon class="cls-1" points="18.28 21.24 22.28 29.91 31.98 22.63 28.46 15.92 18.28 21.24"/><path class="cls-1" d="M8.12,31.51h4.7a4.76,4.76,0,1,0,0,1.3H8.12a.65.65,0,1,1,0-1.3Z"/><path class="cls-1" d="M0,0V45H45V0ZM2.71,18.89h9.92a.65.65,0,0,1,0,1.3H2.71a.65.65,0,1,1,0-1.3ZM37.52,38.22A6.05,6.05,0,0,1,34.3,27l-1.7-3.25-12,9H14.15a6.06,6.06,0,1,1,0-1.3h6l1.08-.81-4.09-8.86-2.8,1.46H2.07a.65.65,0,0,1,0-1.3H14l2.56-1.34-.8-1.75a.64.64,0,0,1,.31-.86.67.67,0,0,1,.87.31l.78,1.69,10.12-5.28L24.58,8.54l-3.88,4.1a.65.65,0,1,1-.94-.89l5.13-5.43L29,14.17l3.4-1.78,5.33,7.55L33.65,23l1.82,3.47a5.82,5.82,0,0,1,2.05-.37,6.06,6.06,0,0,1,0,12.12Z"/><path class="cls-1" d="M37.52,27.4a4.52,4.52,0,0,0-1.43.25l2.62,5a.66.66,0,0,1-.28.88.65.65,0,0,1-.87-.28l-2.65-5a4.75,4.75,0,1,0,2.61-.79Z"/></svg>