<?xml version="1.0" encoding="utf-8"?>
<!-- Generator: Adobe Illustrator 23.0.3, SVG Export Plug-In . SVG Version: 6.00 Build 0)  -->
<svg version="1.1" id="Layer_1" xmlns="http://www.w3.org/2000/svg" xmlns:xlink="http://www.w3.org/1999/xlink" x="0px" y="0px"
	 viewBox="0 0 45 45" width="45" height="45" style="enable-background:new 0 0 45 45;" xml:space="preserve">
<style type="text/css">
	.st0{fill:#FFFFFF;}
</style>
<title>car</title>
<desc>Created with Sketch.</desc>
<g>
	<path class="st0" d="M33.7,27.5c-1.7,0-3,1.3-3,3c0,1.7,1.3,3,3,3s3-1.3,3-3C36.7,28.8,35.4,27.5,33.7,27.5z"/>
	<path class="st0" d="M10.7,27.5c-1.7,0-3,1.3-3,3c0,1.7,1.3,3,3,3s3-1.3,3-3C13.7,28.8,12.4,27.5,10.7,27.5z"/>
	<path class="st0" d="M19.1,11.5h-7c-0.9,0-1.7,0.6-1.9,1.5L9,17.5h10V11.5z"/>
	<path class="st0" d="M0,0v45h45V0H0z M44.3,29.9c0,1.1-0.9,2-2,2h-3.8c-0.6,2.1-2.5,3.6-4.8,3.6c-2.2,0-4.1-1.5-4.7-3.5H15.5
		c-0.6,2-2.5,3.5-4.7,3.5c-2.3,0-4.1-1.5-4.8-3.6H3.7c-1.1,0-2-0.9-2-2V19.5c0-1.1,0.9-2,2-2H7l1.2-5c0.4-1.8,2-3,3.9-3h15.4
		c1.4,0,2.8,0.8,3.5,2l3.4,6.1l6.5,1.1c1.9,0.3,3.3,2,3.3,3.9V29.9z"/>
	<path class="st0" d="M29.2,12.5c-0.4-0.6-1-1-1.7-1h-6.4v6h11L29.2,12.5z"/>
	<path class="st0" d="M40.6,20.6l-7-1.1l-29.9,0v10.4h2.1c0.3-2.5,2.4-4.4,4.9-4.4c2.6,0,4.7,2,4.9,4.5h13.1
		c0.3-2.5,2.4-4.5,4.9-4.5c2.6,0,4.7,1.9,4.9,4.4h3.6v-7.3C42.3,21.6,41.6,20.8,40.6,20.6z"/>
</g>
</svg>
